<svg id="icons" enable-background="new 0 0 64 64" height="512" viewBox="0 0 64 64" width="512" xmlns="http://www.w3.org/2000/svg"><g><g><path d="m23 47.5c-12.683 0-23-10.317-23-23 0-.553.447-1 1-1s1 .447 1 1c0 11.579 9.421 21 21 21 .553 0 1 .447 1 1s-.447 1-1 1z"/></g><g><path d="m49 47.5c-.553 0-1-.447-1-1s.447-1 1-1c7.168 0 13-5.832 13-13 0-.553.447-1 1-1s1 .447 1 1c0 8.271-6.729 15-15 15z"/></g><g><path d="m1 25.5c-.553 0-1-.447-1-1 0-1.654 1.346-3 3-3 .553 0 1 .447 1 1s-.447 1-1 1c-.552 0-1 .448-1 1 0 .553-.447 1-1 1z"/></g><g><path d="m61 23.5h-58c-.553 0-1-.447-1-1s.447-1 1-1h58c.553 0 1 .447 1 1s-.447 1-1 1z"/></g><g><path d="m63 25.501c-.553 0-1-.447-1-1 0-.552-.448-1-1-1-.553 0-1-.447-1-1s.447-1 1-1c1.654 0 3 1.346 3 3 0 .553-.447 1-1 1z"/></g><g><path d="m1 20.5c-.553 0-1-.447-1-1 0-1.654 1.346-3 3-3 .553 0 1 .447 1 1s-.447 1-1 1c-.552 0-1 .448-1 1 0 .553-.447 1-1 1z"/></g><g><path d="m61 18.5h-58c-.553 0-1-.447-1-1s.447-1 1-1h58c.553 0 1 .447 1 1s-.447 1-1 1z"/></g><g><path d="m63 20.501c-.553 0-1-.447-1-1 0-.552-.448-1-1-1-.553 0-1-.447-1-1s.447-1 1-1c1.654 0 3 1.346 3 3 0 .553-.447 1-1 1z"/></g><g><path d="m63 33.5c-.553 0-1-.447-1-1v-12.999c0-.553.447-1 1-1s1 .447 1 1v12.999c0 .553-.447 1-1 1z"/></g><g><path d="m49 47.5h-26c-.553 0-1-.447-1-1s.447-1 1-1h26c.553 0 1 .447 1 1s-.447 1-1 1z"/></g><g><path d="m49 44.5h-26c-10.629 0-19.392-8.323-19.948-18.947-.014-.274.085-.542.273-.741.19-.2.451-.312.726-.312h55.949c.553 0 1 .447 1 1v7c0 6.617-5.383 12-12 12zm-43.865-18c1.001 9.054 8.654 16 17.865 16h26c5.514 0 10-4.486 10-10v-6z"/></g><g><path d="m24.993 44.5c-5.514 0-10-4.486-10-10s4.486-10 10-10 10 4.486 10 10-4.486 10-10 10zm0-18c-4.411 0-8 3.589-8 8s3.589 8 8 8 8-3.589 8-8-3.589-8-8-8z"/></g><g><path d="m24.993 41.5c-3.859 0-7-3.141-7-7s3.141-7 7-7 7 3.141 7 7-3.14 7-7 7zm0-12c-2.757 0-5 2.243-5 5s2.243 5 5 5 5-2.243 5-5-2.243-5-5-5z"/></g><g><path d="m45.001 44.5c-5.514 0-10-4.486-10-10s4.486-10 10-10 10 4.486 10 10-4.486 10-10 10zm0-18c-4.411 0-8 3.589-8 8s3.589 8 8 8 8-3.589 8-8-3.589-8-8-8z"/></g><g><path d="m45.001 41.5c-3.859 0-7-3.141-7-7s3.141-7 7-7 7 3.141 7 7-3.141 7-7 7zm0-12c-2.757 0-5 2.243-5 5s2.243 5 5 5 5-2.243 5-5-2.243-5-5-5z"/></g><g><path d="m1 25.5c-.553 0-1-.447-1-1v-5c0-.553.447-1 1-1s1 .447 1 1v5c0 .553-.447 1-1 1z"/></g></g></svg>